<?xml version="1.0" encoding="UTF-8"?>
<svg viewBox="-20.75 -20.75 49.5 41.5" height="41.5mm" width="49.5mm" xmlns:svgjs="http://svgjs.com/svgjs" xmlns:xlink="http://www.w3.org/1999/xlink" version="1.1" xmlns="http://www.w3.org/2000/svg" id="SvgjsSvg1081">
  <defs id="SvgjsDefs1082">
  </defs>
  <defs id="SvgjsDefs1082">
  </defs>
  <g id="SvgjsG1083">
    <g transform="matrix(1,0,0,1,0,0)" id="SvgjsG1084">
      <g fill="none" stroke-width="0.04" stroke="blue" id="SvgjsG1085">
      </g>
      <g fill="none" stroke-width="0.1" stroke="black" id="SvgjsG1086">
        <circle cy="0" cx="0" r="2" id="SvgjsCircle1087">
        </circle>
        <path d="M18.04442558613911 -2.700109686880931  L17.810647289964493 -2.5698897347319107 L17.595962086813767 -2.461800365466785 L17.40603219077849 -2.3759596112062016 L17.239356972857514 -2.3088487914302798 L17.09731257418867 -2.2584531516704063 L16.983598842869895 -2.223378732080604 L16.83621380718656 -2.187141358326122 L16.668051041383716 -2.1571968162935944 L16.59839440989475 -2.1398630633932467 L16.536782067672082 -2.1207231238469224 L16.483265008080387 -2.1001028805734134 L16.43785438551257 -2.078324630919153 L16.400599400547122 -2.055734177288813 L16.371481328348146 -2.0326511278495603 L16.350530346401328 -2.0094095324769476 L16.337715977341652 -1.9863480224309336 L16.333029456076147 -1.9637871022717748 L16.33371669618589 -1.9528044932451563 L16.363150259186572 -1.6886896487757763 L16.38377713622168 -1.47456663146148 L16.401714882663004 -1.2602015880131447 L16.419913855627428 -0.9950756121393343 L16.421198680313566 -0.9841467866980576 L16.42983829510171 -0.9627852404920264 L16.446564523601936 -0.9423824323480883 L16.471328761749504 -0.9232552812541436 L16.504100532179386 -0.9057424184701499 L16.544790495462006 -0.8901671371545926 L16.593360007275585 -0.8768472526884606 L16.64969891231156 -0.8661142251869998 L16.713738687019333 -0.8582831808519328 L16.78537096887653 -0.8536656603126257 L16.956178094292028 -0.8542289606722935 L17.10766502475078 -0.8448905507335533 L17.2258141090741 -0.8306841622564709 L17.374574284765984 -0.8064614079102214 L17.550554062951136 -0.7701900959694373 L17.752759165947655 -0.719642130410313 L17.983294391698685 -0.6516233250112003 L18.236567444773616 -0.5652387877021365 L18.494135684454378 -0.46549425898617547 A18.5 18.5 0 0 1 18.494135684454378 0.46549425898617747 L18.236567444773616 0.5652387877021385 L17.983294391698685 0.6516233250112023 L17.752759165947655 0.719642130410315 L17.550554062951136 0.7701900959694393 L17.374574284765988 0.8064614079102231 L17.2258141090741 0.8306841622564727 L17.10766502475078 0.8448905507335551 L16.956178094292028 0.8542289606722953 L16.78537096887653 0.8536656603126277 L16.713738687019333 0.8582831808519346 L16.64969891231156 0.8661142251870015 L16.593360007275585 0.8768472526884624 L16.544790495462006 0.8901671371545944 L16.504100532179386 0.9057424184701519 L16.471328761749504 0.9232552812541454 L16.446564523601936 0.94238243234809 L16.42983829510171 0.9627852404920282 L16.421198680313566 0.9841467866980593 L16.419913855627428 0.995075612139336 L16.401714882663004 1.2602015880131465 L16.38377713622168 1.4745666314614818 L16.363150259186572 1.688689648775778 L16.33371669618589 1.952804493245158 L16.333029456076147 1.9637871022717766 L16.337715977341652 1.9863480224309353 L16.350530346401328 2.0094095324769494 L16.371481328348146 2.032651127849562 L16.400599400547122 2.055734177288815 L16.43785438551257 2.078324630919155 L16.483265008080387 2.100102880573415 L16.536782067672082 2.120723123846924 L16.59839440989475 2.1398630633932485 L16.668051041383716 2.1571968162935966 L16.83621380718656 2.187141358326124 L16.983598842869895 2.2233787320806058 L17.09731257418867 2.258453151670408 L17.23935697285751 2.3088487914302815 L17.40603219077849 2.3759596112062034 L17.595962086813767 2.4618003654667873 L17.810647289964493 2.569889734731913 L18.04442558613911 2.7001096868809333 L18.280044524923596 2.8442418650615404 A18.5 18.5 0 0 1 18.113810106061266 3.760269014540126 L17.84257102063543 3.812420022568439 L17.577943614979766 3.8521926749309983 L17.338967958469084 3.877954736092511 L17.130986686896552 3.891585259746101 L16.95135848331474 3.895851274041835 L16.800663805046824 3.893122603719224 L16.681876776502506 3.8860043560688777 L16.531156865857138 3.8681436580127753 L16.363195262380415 3.8370906201979573 L16.29188965063311 3.8288434974667815 L16.227480734491444 3.8251139503822578 L16.170130762774853 3.8256147937766087 L16.119963425788335 3.8300482010082337 L16.077146293088248 3.838107707652142 L16.04177413609378 3.849487505961367 L16.013992584735604 3.8638854504026128 L15.993892091541221 3.8809737936032422 L15.98157706755842 3.900449388184745 L15.97836147339898 3.910973168598729 L15.913114894434694 4.168588908866006 L15.857189058446785 4.376306109571806 L15.798660522735 4.583305010794577 L15.722540442702066 4.837919855443862 L15.71990322625904 4.848603257965186 L15.720486025352349 4.871638425540371 L15.728976670606203 4.896617421580508 L15.745441014553972 4.923226457233264 L15.769969509723143 4.9511377851260026 L15.802592110501113 4.980017335303959 L15.843384309049862 5.009553979283256 L15.892359440868013 5.03939868674361 L15.949564079231735 5.0692323480957775 L16.01500623890275 5.09872521227669 L16.175119755435258 5.158215154482035 L16.313665820027495 5.22018679304358 L16.419289345453173 5.275001923041158 L16.55005254325123 5.349950690887102 L16.702066122263222 5.445744021531597 L16.873616308203857 5.564118572021697 L17.06555132968144 5.7088044238884255 L17.27232104216326 5.87867441447 L17.478417693491032 6.062561715316177 A18.5 18.5 0 0 1 17.15129176676675 6.934185630007104 L16.87509968297768 6.9370669410397445 L16.60762326729522 6.928949382683821 L16.367888054254966 6.911626685764907 L16.160815303302318 6.887901671267505 L15.98331207258554 6.860025274708637 L15.835526342693123 6.83043288142649 L15.719919282763513 6.802218783985111 L15.574810653872426 6.757733035465521 L15.415092996469486 6.697188330381446 L15.346405875864091 6.676341633690122 L15.283697973849154 6.661171365897985 L15.227180210730628 6.651423927666437 L15.17702746805974 6.646828364307312 L15.133459343817226 6.647113057104651 L15.096623690488283 6.65199403485812 L15.06671774783889 6.661200010865656 L15.043889036340351 6.674424655712174 L15.028294418166544 6.691388337034725 L15.023251406375879 6.701168829459918 L14.913054300144704 6.942994352261533 L14.820937876994794 7.137387508483831 L14.726388837901549 7.330609178610513 L14.606028802840436 7.567540492834884 L14.601526372370513 7.577581315503545 L14.597986717649237 7.600350361255489 L14.601880742772686 7.626443997804234 L14.613329271160016 7.655565237437267 L14.632479823282527 7.687407750739501 L14.659421522642058 7.7216481849601815 L14.694284202346443 7.757993891224189 L14.737143305357549 7.796103829417305 L14.788101635717181 7.835672334152239 L14.847225958712425 7.876376384692132 L14.9941440458114 7.963499671379329 L15.119398154800464 8.049213755294133 L15.21353664731854 8.122007792319325 L15.328815807476268 8.21910077318472 L15.461281906072644 8.340497738231859 L15.608938617790532 8.487601429499819 L15.77195450808002 8.664233441641239 L15.945069888179194 8.86829370938858 L16.11502013609969 9.086025843748157 A18.5 18.5 0 0 1 15.637516797958476 9.885231813858713 L15.365248756630761 9.838750820188343 L15.103520243001862 9.783003956118641 L14.870730760433938 9.72315326685144 L14.671222018696822 9.662835255689998 L14.501548860730463 9.603712418598704 L14.36142203417079 9.548207426225813 L14.252710648883829 9.499804303299804 L14.117877212475362 9.430123312877143 L13.97153695807126 9.34203289716156 L13.907675989179983 9.309256656494469 L13.848684584858772 9.283133252883696 L13.794815557747912 9.263450823711228 L13.746289359807907 9.249973994948956 L13.703370559384092 9.242474723638976 L13.66625533792714 9.24070000219561 L13.635186205589974 9.244418122125852 L13.610363009358373 9.253354017651617 L13.591990020852956 9.267260559039746 L13.585281677979426 9.275983410402185 L13.433675870146114 9.494246244460593 L13.308329557467886 9.669067400211183 L13.180798898904847 9.842301535780583 L13.020067379374984 10.053934152193134 L13.013844446698078 10.063009674706946 L13.006296105577398 10.08478078277075 L13.005468353398957 10.111150388879507 L13.011533101103602 10.141847851889978 L13.024690195677112 10.176598106024064 L13.045085065233078 10.215098908558492 L13.072897710882296 10.257085496202539 L13.108263258250988 10.30223578035793 L13.15133743794012 10.350267364176375 L13.202243619870872 10.400874339399492 L13.331244209332345 10.512830756449134 L13.439180592595909 10.619532364534393 L13.518808363599437 10.707965648342077 L13.61489831905736 10.824082193933538 L13.72355936783576 10.967180995040952 L13.842576797123945 11.138285793412098 L13.971434091381512 11.341186867624678 L14.105331068341846 11.572878747631043 L14.233672572051368 11.817457625555104 A18.5 18.5 0 0 1 13.621139172672136 12.518558513617073 L13.361546092676942 12.424209152624947 L13.113977650880575 12.322624732921344 L12.895615944294537 12.222169701704212 L12.710083586888725 12.127197364387285 L12.55369393657736 12.038728343394112 L12.425729804852795 11.959094728055002 L12.327408167579634 11.892058295841426 L12.207183581241276 11.799421667881587 L12.078924226021725 11.686616839976635 L12.021941952929708 11.642964510677192 L11.968563078575395 11.606727598934242 L11.919074182327128 11.577742788289218 L11.873734201047288 11.555817850488989 L11.832844170001499 11.54077564782201 L11.796642294172676 11.532402268189246 L11.765408559624817 11.530513028608356 L11.739388716611627 11.534872967778691 L11.718827880742513 11.545275401549846 L11.710669818445716 11.552660252229554 L11.5225280444157 11.74034525047086 L11.367980575833922 11.88997550996059 L11.211567238099882 12.03765422331799 L11.015630277389295 12.217186095495322 L11.007886852681889 12.225004623093325 L10.996572435056217 12.24507805214249 L10.99104951021198 12.270876086973944 L10.99153555125262 12.302163131642734 L10.998276308431839 12.338704224848204 L11.011468840295763 12.38022794822436 L11.031337530574325 12.426505933774884 L11.058072844509306 12.477245396610016 L11.091878433951173 12.53219628488753 L11.132930308244434 12.591079634970642 L11.239867214981077 12.724270811020707 L11.327016708350694 12.848530465798188 L11.389574455761677 12.949760677883633 L11.463386796288294 13.081168706884839 L11.544750339734374 13.241370030842848 L11.631303168487666 13.430976487312035 L11.72186028725174 13.653625216123025 L11.812235302062927 13.905501940728293 L11.894843060032512 14.169066595840189 A18.5 18.5 0 0 1 11.166966926865474 14.749528442443527 L10.92839234338774 14.610343180222845 L10.702941026843233 14.466186211718552 L10.506025421157371 14.328355545909483 L10.340432610706415 14.201781371501934 L10.202352960088888 14.086809633734157 L10.090664395682294 13.985606885348583 L10.005892644744206 13.902091749936545 L9.904141025601989 13.789476901883827 L9.798084930775895 13.65558330177449 L9.749812810625487 13.602457905623641 L9.703762107180102 13.557272169907762 L9.660243955639448 13.519916573453092 L9.619547455323968 13.490248212155706 L9.582000432898447 13.468146546902211 L9.54787546077389 13.453443636391086 L9.517481001942912 13.446007759013666 L9.491100811311778 13.445651609796265 L9.469012970261309 13.452215593169889 L9.45966739537594 13.458025087989746 L9.241036686570116 13.609099900142743 L9.062255344887086 13.728730023715428 L8.881986581354138 13.846106799503067 L8.657141754597534 13.987767625354088 L8.648126717901034 13.994077864126176 L8.633409878462395 14.011808437634592 L8.623369292301131 14.036205731122562 L8.618261004918805 14.067076766090953 L8.618368771221682 14.104234237566068 L8.623934946564603 14.147446275148805 L8.635221085418944 14.196528246072564 L8.652466870932452 14.251226079503347 L8.675917330667064 14.311330105476948 L8.705795456305454 14.376597271099003 L8.78723164014677 14.526742332161177 L8.850793187198699 14.664566226085142 L8.89427025354266 14.775339744139428 L8.94343258978045 14.917815694375397 L8.994883536661707 15.089970538817902 L9.04618988574807 15.291984545865501 L9.09553624871093 15.52722481593493 L9.139484574036127 15.791190859965425 L9.17370350495474 16.06527010738814 A18.5 18.5 0 0 1 8.353879175818362 16.50643639117742 L8.143991072270882 16.32688875657797 L7.947903071793939 16.144792562853464 L7.778762596597696 15.974016253459009 L7.6384316222797075 15.81990844007188 L7.5230999649391785 15.682129271780415 L7.431276730208245 15.562610129951386 L7.362779499430805 15.465300536509513 L7.282771228245474 15.336327002240138 L7.202327123963792 15.18564808040195 L7.164316662415061 15.124757111343701 L7.127074237377985 15.072074858379752 L7.0909255397423125 15.027549115721774 L7.056180539396523 14.991090896470537 L7.02318331778582 14.962640134337088 L6.992232054047734 14.942080256589023 L6.963653773849106 14.929336736632242 L6.937761116632606 14.924275945955996 L6.9148561917860825 14.926790507105594 L6.90462347877852 14.930837924122024 L6.662530806067854 15.040446881419344 L6.465261770707043 15.126231858471364 L6.266931567760769 15.209534110537495 L6.020405572693045 15.308770794560438 L6.010408674704475 15.313369928240395 L5.99276242478148 15.328187770986732 L5.978526890003835 15.350400174044358 L5.967988458758124 15.379862978847694 L5.9614597704870125 15.416442556885974 L5.959220687853545 15.459954038232402 L5.961561529494621 15.510262459599124 L5.968763492850374 15.567160630253566 L5.981105105806757 15.630486001074704 L5.998849175248453 15.700039241830606 L6.052167210239867 15.862312402102583 L6.090097890553245 16.009270761820442 L6.113096887144839 16.12602723382855 L6.136029101156217 16.274991811029093 L6.155913775705907 16.453566977606233 L6.1703246168506976 16.661495638828054 L6.176874191304393 16.901766634319554 L6.172983291806848 17.169337911928157 L6.15771357107934 17.445122619136367 A18.5 18.5 0 0 1 5.2722908744657655 17.73281389275777 L5.097835227193067 17.518674694487864 L4.937412972460757 17.304491997038692 L4.801483941796187 17.106258935158014 L4.690925156590458 16.92957063471389 L4.602048346889055 16.7734123717327 L4.533041716150443 16.63941828001928 L4.483020562890548 16.531441838947398 L4.427327171329024 16.390254933972557 L4.375080597292995 16.22763363493243 L4.348553481855229 16.160934178813573 L4.321316337410323 16.102448659558913 L4.293698942564892 16.05218386470256 L4.266022175088189 16.01010758466213 L4.238635312145075 15.976222156553058 L4.211852555876786 15.950466122955598 L4.186008983750381 15.932824547636276 L4.161436071256002 15.923221773477547 L4.138450245744226 15.921606092338788 L4.127659282430038 15.923761344238653 L3.8698857035099627 15.98838152460621 L3.6604693635813716 16.037564155391 L3.4504522171310987 16.084114480812897 L3.1901686020759965 16.137737474331043 L3.1795111513221834 16.14047768297822 L3.1595026559067416 16.151906537304452 L3.1415297143135064 16.171220125021033 L3.1258998530556967 16.19832774087086 L3.112944547623454 16.233153727736376 L3.1029721729717608 16.275566158034657 L3.096292480823176 16.325484075787703 L3.093219144993124 16.382753829645 L3.0940552415761466 16.4472652157912 L3.0990949458294246 16.518869033294457 L3.122581146456089 16.688054699886294 L3.1336618367561737 16.839424162798974 L3.135443556921311 16.958410939683016 L3.1314085884792613 17.109076299768443 L3.119087880896191 17.2883322356943 L3.0961400378077406 17.495492552834396 L3.059682315040322 17.733071766257236 L3.008077247431328 17.99564831642322 L2.943809656445845 18.264274536010845 A18.5 18.5 0 0 1 2.021246806352459 18.38924416521701 L1.8878307634004696 18.14739601330336 L1.7682303576757628 17.90801082025566 L1.6698816424312017 17.6886923796043 L1.5926484966623153 17.495102499459083 L1.5330831083919256 17.32558419684783 L1.4891110115364163 17.181421835608397 L1.459173656817384 17.066248998565857 L1.4295851763091276 16.91738658618042 L1.407215380396896 16.748049692294753 L1.3930242143868488 16.67768552451544 L1.3766677747673688 16.61527651168096 L1.3584693285061777 16.560888216490927 L1.3387503479777827 16.514546241922282 L1.3178540800112355 16.47631525337804 L1.2961006510361328 16.44619088404314 L1.2738224206542546 16.424218268107573 L1.2513590465082252 16.410382151529014 L1.2290311036759443 16.404688157423085 L1.2180287204948845 16.404881972636975 L0.9528592902886996 16.422436430308096 L0.7380264592659704 16.433435944604625 L0.5230724932012951 16.441738177621495 L0.2573969877087563 16.44802399350203 L0.24642152342590695 16.448817204555848 L0.22469387202371582 16.456489737680236 L0.20356118874588258 16.472283755455294 L0.18334225407709326 16.496164921273973 L0.16437672565997163 16.528117981093956 L0.14699157931665574 16.568068189937236 L0.13150604418013512 16.615991201127432 L0.1182561887066057 16.671791841176898 L0.10755989608414673 16.73541579361727 L0.09973325490762353 16.80676878225751 L0.09263275535688631 16.977429188638517 L0.07650731314021209 17.12834461566079 L0.057014490926780015 17.245737364509075 L0.026142027237013976 17.393260998838368 L-0.01798806479958459 17.567436270840002 L-0.07755702956286614 17.767169940853424 L-0.15585026834414017 17.99442138080736 L-0.25351087473083833 18.24356377715969 L-0.36471072272047245 18.49639764140279 A18.5 18.5 0 0 1 -1.2947617972044274 18.454628999485678 L-1.382850134440145 18.192845092524113 L-1.4577846357097157 17.935951440949225 L-1.5153920269047143 17.702596696665534 L-1.5568171963841018 17.498327374853368 L-1.5851566826339036 17.32089749033811 L-1.6026809462330114 17.17120035648008 L-1.6115722911979748 17.05253287321396 L-1.6141048625439445 16.900779513836397 L-1.6058788966858308 16.730169652205532 L-1.607277997516067 16.658402335014024 L-1.6122280228826273 16.59407570562253 L-1.6204226075230113 16.53731199465706 L-1.631550016844085 16.488193794753144 L-1.6452840665881137 16.446846021202095 L-1.6613089951639899 16.4133215381466 L-1.6793058431462786 16.387724099550084 L-1.6989376876159787 16.370099344722927 L-1.7198901093146421 16.36051004730542 L-1.7307502867143443 16.358736196452895 L-1.9947928045376784 16.328660716714175 L-2.208137222700432 16.301123581082525 L-2.4211192110454793 16.270910881094103 L-2.6836475776303903 16.22965748804264 L-2.6945882949895825 16.22847820704718 L-2.7173367577848855 16.232147817442122 L-2.740949960918738 16.243914632549 L-2.765108115802057 16.263801788017634 L-2.7894742995158417 16.2918549231584 L-2.8137134446427607 16.328058877963315 L-2.837507104926389 16.372446697579818 L-2.8605076187864595 16.424984745337348 L-2.8823925129685746 16.485676337890496 L-2.9028339448877034 16.554485153903386 L-2.9402929287179718 16.72113513419263 L-2.9831062184705024 16.866745979326378 L-3.0232470677178167 16.97877160059984 L-3.0799647602703626 17.11841197818281 L-3.1544858592920724 17.281908449706194 L-3.248761350189186 17.467795868097294 L-3.3663736958699935 17.677415486319106 L-3.5069509487897133 17.90511608724397 L-3.661508999173572 18.13403130771337 A18.5 18.5 0 0 1 -4.569155691265608 17.92686687319156 L-4.609085091146973 17.65356116134834 L-4.63694523143429 17.387415824580682 L-4.6519597496272 17.147524990150863 L-4.656245503785278 16.939141610748152 L-4.652448233608617 16.75950288680699 L-4.642961419700236 16.60908236938378 L-4.630520979768132 16.490734310446186 L-4.60591624302495 16.340967481909964 L-4.567358904707518 16.174568193864985 L-4.555920972106076 16.10370438788616 L-4.54930548533154 16.039527652734424 L-4.547232827658249 15.982212958369288 L-4.549411021680758 15.931897232489595 L-4.555541429543082 15.888761625394741 L-4.5653228033299476 15.852914533088091 L-4.578459835410641 15.824514994568759 L-4.59462916656962 15.803668075614842 L-4.613532639061559 15.79049168279486 L-4.623901555642495 15.78680717890185 L-4.878330617305228 15.710068412418273 L-5.083329557467884 15.644879693055275 L-5.287494151745729 15.577123121098282 L-5.538437501711914 15.489656437110899 L-5.548991828489473 15.486542567127662 L-5.572029948366149 15.486091310495707 L-5.5973647235782895 15.493452727815104 L-5.624685635700794 15.508706683393724 L-5.653669325518118 15.531958243009653 L-5.683983403360225 15.563252318880059 L-5.715320440971956 15.602678285877978 L-5.747332357778219 15.65026512526019 L-5.779702455014027 15.706073680204252 L-5.812101673234615 15.770126751627055 L-5.878715178782754 15.927410038337973 L-5.946840261711603 16.0630362492116 L-6.00633897806999 16.16609414726752 L-6.087078946179204 16.29336311147216 L-6.1895958827473025 16.440925871397198 L-6.315547807930682 16.606992463590203 L-6.468699102949082 16.79224291307465 L-6.647674733825635 16.99118323390564 L-6.8406233636935925 17.18882228706339 A18.5 18.5 0 0 1 -7.696693161895687 16.82292049531787 L-7.687180260656492 16.546877249048325 L-7.667070592129322 16.280034357196723 L-7.639009658351436 16.041317721422185 L-7.606018249523233 15.835517897701344 L-7.570206270307992 15.659444070728997 L-7.534013292896913 15.513134808936995 L-7.500640914043189 15.398909978319287 L-7.449689685694624 15.255943309722122 L-7.382040239496481 15.099102805294581 L-7.358132898028332 15.03142013155953 L-7.3401645263008755 14.969455983720124 L-7.327891243236916 14.913432447390901 L-7.3210502130127555 14.863536384365126 L-7.319379942640562 14.81999935763059 L-7.3226033802367665 14.7829818111146 L-7.3304583613956025 14.752692957207687 L-7.342645483636242 14.72929391125509 L-7.358892433761739 14.71295392313944 L-7.368436824013423 14.70747718919268 L-7.605074870128786 14.586541583059901 L-7.795139497680827 14.485796499043339 L-7.9839246798441925 14.382673807090768 L-8.215217487446862 14.251805083358644 L-8.225046198896028 14.246856706730997 L-8.247633511725413 14.242299086831588 L-8.273875578495 14.245018504353864 L-8.30348113126135 14.255148985359176 L-8.336150767543625 14.272851645192766 L-8.371565458696569 14.298230024781336 L-8.409438675463361 14.331426956141565 L-8.44943310587017 14.372533106976135 L-8.491248004600308 14.421664891435773 L-8.534563671590579 14.47890349984992 L-8.628190685978497 14.621764878734508 L-8.719437965864826 14.743047317336908 L-8.796382211634821 14.833825126535453 L-8.898549406292606 14.944632148134977 L-9.025767201714578 15.071518407942627 L-9.179347362675243 15.212426657024416 L-9.363115198396036 15.367353835900479 L-9.57473678319141 15.531139771037454 L-9.79987446482085 15.691150375097108 A18.5 18.5 0 0 1 -10.576852581442209 15.178271610779573 L-10.518203131555525 14.908363087147947 L-10.450769995506622 14.649399190315572 L-10.380535511258172 14.41952930228681 L-10.311327310468851 14.222927609914889 L-10.2446516486932 14.056077837584267 L-10.182915779853097 13.918582331481133 L-10.129684077792998 13.812152009223867 L-10.054023972240985 13.680580566927839 L-9.959456727025085 13.538339828978836 L-9.923848378316043 13.476013664310896 L-9.895104639887412 13.418253682479646 L-9.87302520484895 13.365321946740279 L-9.857384826718343 13.317449247088685 L-9.847967561975697 13.274910116576098 L-9.844529459444644 13.237911890253937 L-9.84684992412408 13.206707229645758 L-9.854663133309968 13.1815081212842 L-9.867731370723954 13.162529718535504 L-9.876144470090546 13.15543678127032 L-10.08738575914996 12.994191305375592 L-10.256407240576165 12.861127886599089 L-10.423745299537355 12.725953522819927 L-10.627953623631802 12.55588898780296 L-10.636740816879508 12.549265149427255 L-10.658151347842361 12.540747651913978 L-10.68445726455138 12.538737665322422 L-10.715395911136135 12.54341906975953 L-10.750701464892582 12.555003851757931 L-10.790078512043403 12.573650853063292 L-10.833270631616184 12.599551772097383 L-10.87996212172274 12.632856048874237 L-10.929877856696605 12.67373192687115 L-10.982717771279244 12.722316376306127 L-11.100349045227949 12.846164165100296 L-11.211785759417701 12.949204714063269 L-11.303702483230317 13.024784760924565 L-11.424013166736923 13.115568411072443 L-11.571842936392756 13.217699941970126 L-11.748115140391251 13.328920940875514 L-11.956593067369695 13.448545362139614 L-12.194058914225748 13.571912696863752 L-12.444149537285197 13.68915197935367 A18.5 18.5 0 0 1 -13.11706325635789 13.04578058794734 L-13.011162299399999 12.790681868984624 L-12.898573052306142 12.547920279891875 L-12.788422411700004 12.33428534694771 L-12.685221827467627 12.153200726081952 L-12.589825493761955 12.000937697360213 L-12.504530975113791 11.87667516564378 L-12.433150860550718 11.781460109875466 L-12.33521365584104 11.665512708293313 L-12.216768080678813 11.542443471176595 L-12.170603206355032 11.487477029790332 L-12.132007948628749 11.435777667308367 L-12.100832012824943 11.387639001697895 L-12.07689498140995 11.343328333377077 L-12.060033400934232 11.303154341742426 L-12.050044261720151 11.267364589050327 L-12.046755628276106 11.236247065208111 L-12.049943801435276 11.210057814514228 L-12.059413302234685 11.189050978612311 L-12.06642470678022 11.18056981086849 L-12.245479769943403 10.98419702748029 L-12.388025615759398 10.823092041708271 L-12.528538168617187 10.660210621376217 L-12.699098585643847 10.456416289159417 L-12.706561833068985 10.448329884651159 L-12.72610743008352 10.436126268902315 L-12.751631702924357 10.429451480819804 L-12.782909049769879 10.428533344498224 L-12.819715771453263 10.433627904236017 L-12.861789563906989 10.44494419729341 L-12.908912356024098 10.462716627152261 L-12.960800202920487 10.487148603012939 L-13.017212441345215 10.518454790195525 L-13.077878285188708 10.55682353647107 L-13.215733052766156 10.65767716534068 L-13.343777533574837 10.73916401663851 L-13.447712456297406 10.797117096268964 L-13.582299744292973 10.864959513752405 L-13.74599011775119 10.939053724302969 L-13.93928883111375 11.017012738614191 L-14.165776197240548 11.0974895749396 L-14.421453958451774 11.176473181605886 L-14.688459404540852 11.247172975522036 A18.5 18.5 0 0 1 -15.235680725458629 10.493987442914456 L-15.085932005321759 10.26189761134404 L-14.931805358223286 10.043140887209256 L-14.78527889348079 9.852607311873921 L-14.65140287749631 9.692859971225877 L-14.530351988518282 9.560077545138574 L-14.424240256071972 9.45304188782176 L-14.337005944619735 9.372102388778002 L-14.21993942309476 9.27550567279841 L-14.081422456229266 9.175563483056619 L-14.026184833336098 9.129723431604724 L-13.978978539651768 9.08574634852059 L-13.939708123310997 9.043947969360364 L-13.908243794496752 9.004623513709086 L-13.884479843358209 8.968105886098781 L-13.86826072661453 8.934674919136175 L-13.85946869443179 8.904644674879796 L-13.857929361055671 8.878307025919476 L-13.863495767693276 8.855946933854707 L-13.86888012510666 8.846350127341866 L-14.009993985316552 8.621161619294357 L-14.121482654750697 8.437193113327156 L-14.230653512442121 8.251839779310961 L-14.362084070260181 8.020865767414312 L-14.367983496949726 8.011576700467913 L-14.385035948445722 7.996079200734838 L-14.408958206287835 7.984954144342373 L-14.439568973731422 7.978465976918929 L-14.476693865022165 7.976906571054323 L-14.520112116470901 7.980528440893805 L-14.56965101582093 7.989601161058552 L-14.62506750141444 8.004375572196192 L-14.686163107530922 8.025105861949587 L-14.752705030498117 8.052025701990496 L-14.906352526047085 8.126643652321032 L-15.046889318506155 8.183957751505401 L-15.159501886204435 8.222421204241742 L-15.304040032513994 8.265141877941902 L-15.478329866486757 8.30881731925333 L-15.6824423095192 8.351008682105537 L-15.91965962449261 8.38975134175619 L-16.18533160644132 8.42181262225844 L-16.460670100829912 8.443700578052376 A18.5 18.5 0 0 1 -16.86461088008327 7.604908906984675 L-16.675827443846277 7.40328752095738 L-16.48511715399676 7.215566682887887 L-16.306924346257105 7.054258371044206 L-16.146675783827817 6.920982721582851 L-16.00386101475019 6.811948634558175 L-15.880342586895583 6.725580065736376 L-15.780057861100888 6.66151758551368 L-15.647624637085086 6.587376253068279 L-15.493488327803519 6.513773334912419 L-15.430953338990419 6.478533010365879 L-15.376653258468526 6.4436916663143675 L-15.330550545083788 6.409577007902413 L-15.292570208287318 6.376502685281582 L-15.262667679428583 6.344815128293821 L-15.240739880912583 6.314817445845977 L-15.22672703313961 6.286839677934802 L-15.220509668669479 6.261200144416317 L-15.221994072255892 6.2382054679456065 L-15.225578324859596 6.227801471921345 L-15.324215466540178 5.981034983148892 L-15.401063622023676 5.780115856138088 L-15.475383943356452 5.578248017102264 L-15.563460355696217 5.327518020314174 L-15.567606349222302 5.317324849184361 L-15.581617575377873 5.299031567859859 L-15.603168937170917 5.2838138116236255 L-15.632129269960311 5.271964148137787 L-15.668379106305865 5.263800897258355 L-15.711746318423396 5.259611934003201 L-15.762109104020492 5.259693339782687 L-15.819273096867313 5.264335324466903 L-15.883088407625328 5.273823428221492 L-15.95336769756118 5.288429136219132 L-16.117869564153146 5.3344131256911185 L-16.26638170011891 5.365712350456045 L-16.38405245220915 5.383449929279487 L-16.533895881883932 5.399675781592957 L-16.713183357701205 5.4115286890452285 L-16.92154918854019 5.416596335321177 L-17.16187209267391 5.41235959733834 L-17.428999379264635 5.396468075741104 L-17.703821316193824 5.368840696504136 A18.5 18.5 0 0 1 -17.951498564773985 4.471402341444514 L-17.72974806740905 4.3067296782018865 L-17.50858372044121 4.156078228390457 L-17.304451833162673 4.029179761906009 L-17.122981244938014 3.926659392664601 L-16.96299277994732 3.8448780899730703 L-16.826037640586968 3.7819525665125133 L-16.715925734051403 3.7368261259360214 L-16.57238232033106 3.6875231404532975 L-16.40758073643751 3.6426251522335837 L-16.339758307698887 3.6191172076191593 L-16.280109689605663 3.5945314320656356 L-16.228656458318582 3.569196967592949 L-16.18538083281485 3.543435813945241 L-16.150300818117326 3.5175967917342206 L-16.123369115315562 3.491996543997187 L-16.10458583640959 3.4669704809120656 L-16.093890272055177 3.44285313853898 L-16.091244962637763 3.419962945484177 L-16.092913909603972 3.4090861529411525 L-16.145904053862715 3.1486729614330473 L-16.185641732447458 2.937260919437574 L-16.222722801142986 2.7253667738261447 L-16.26461421964234 2.4629394605447104 L-16.266873524361703 2.452169802138565 L-16.27739319283974 2.431668700336168 L-16.29588098008316 2.4128473554628096 L-16.32226006929387 2.3960170538489454 L-16.356469751127623 2.381512331554699 L-16.39839206603383 2.36964717193062 L-16.447960036510267 2.360734646876112 L-16.505034238845607 2.355095007899714 L-16.569518177649982 2.3530359701939867 L-16.64127600034997 2.354858106675697 L-16.811345012640075 2.3707301720317515 L-16.963059189866406 2.375008539540202 L-17.082006091556607 2.3714501440728335 L-17.232338713475272 2.360659662755581 L-17.410861384146063 2.340309074150575 L-17.61678355354445 2.3080901255292856 L-17.852487870961276 2.2610101621577243 L-18.112484771409928 2.1976766050407237 L-18.377957147702567 2.121421857473414 A18.5 18.5 0 0 1 -18.461410315050642 1.1941812255682254 L-18.21382 1.071750000000001 L-17.96931 0.9630100000000011 L-17.7458 0.8746000000000012 L-17.54894 0.8061300000000011 L-17.37692 0.7542300000000011 L-17.23093 0.7167700000000011 L-17.11453 0.692030000000001 L-16.96449 0.669150000000001 L-16.79432 0.654400000000001 L-16.72339 0.643380000000001 L-16.66031 0.629840000000001 L-16.60516 0.614100000000001 L-16.55798 0.596480000000001 L-16.51885 0.577320000000001 L-16.48778 0.556940000000001 L-16.46483 0.535670000000001 L-16.45 0.513850000000001 L-16.44331 0.491800000000001 L-16.44301 0.480800000000001 L-16.44865 0.215110000000001 L-16.45 1.007271992298698e-15 L-16.44865 -0.215109999999999 L-16.44301 -0.480799999999999 L-16.44331 -0.491799999999999 L-16.45 -0.513849999999999 L-16.46483 -0.535669999999999 L-16.48778 -0.556939999999999 L-16.51885 -0.5773199999999991 L-16.55798 -0.596479999999999 L-16.60516 -0.614099999999999 L-16.66031 -0.629839999999999 L-16.72339 -0.643379999999999 L-16.79432 -0.654399999999999 L-16.96449 -0.669149999999999 L-17.11453 -0.692029999999999 L-17.23093 -0.7167699999999989 L-17.37692 -0.7542299999999988 L-17.54894 -0.8061299999999989 L-17.7458 -0.8745999999999989 L-17.96931 -0.9630099999999989 L-18.21382 -1.0717499999999989 L-18.461410315050642 -1.1941812255682231 A18.5 18.5 0 0 1 -18.377957147702567 -2.121421857473411 L-18.112484771409928 -2.197676605040721 L-17.852487870961276 -2.2610101621577217 L-17.61678355354445 -2.308090125529283 L-17.410861384146063 -2.3403090741505723 L-17.232338713475272 -2.3606596627555794 L-17.082006091556607 -2.371450144072831 L-16.963059189866406 -2.3750085395401994 L-16.811345012640075 -2.3707301720317493 L-16.64127600034997 -2.354858106675695 L-16.569518177649982 -2.353035970193984 L-16.505034238845607 -2.355095007899712 L-16.447960036510267 -2.36073464687611 L-16.39839206603383 -2.369647171930618 L-16.356469751127623 -2.3815123315546964 L-16.32226006929387 -2.396017053848943 L-16.29588098008316 -2.4128473554628074 L-16.27739319283974 -2.4316687003361657 L-16.266873524361703 -2.4521698021385627 L-16.26461421964234 -2.462939460544708 L-16.222722801142986 -2.725366773826142 L-16.185641732447458 -2.9372609194375716 L-16.145904053862715 -3.1486729614330446 L-16.092913909603972 -3.4090861529411502 L-16.091244962637763 -3.419962945484175 L-16.093890272055177 -3.4428531385389776 L-16.10458583640959 -3.4669704809120634 L-16.123369115315562 -3.491996543997185 L-16.150300818117326 -3.517596791734219 L-16.18538083281485 -3.543435813945239 L-16.228656458318582 -3.569196967592947 L-16.280109689605663 -3.5945314320656334 L-16.339758307698887 -3.6191172076191567 L-16.40758073643751 -3.642625152233581 L-16.57238232033106 -3.6875231404532953 L-16.715925734051403 -3.7368261259360187 L-16.826037640586968 -3.7819525665125107 L-16.96299277994732 -3.8448780899730677 L-17.122981244938014 -3.9266593926645985 L-17.304451833162673 -4.029179761906006 L-17.50858372044121 -4.156078228390455 L-17.72974806740905 -4.306729678201884 L-17.951498564773985 -4.471402341444512 A18.5 18.5 0 0 1 -17.703821316193824 -5.368840696504134 L-17.428999379264635 -5.396468075741101 L-17.16187209267391 -5.412359597338337 L-16.92154918854019 -5.4165963353211755 L-16.713183357701205 -5.411528689045227 L-16.533895881883932 -5.399675781592955 L-16.38405245220915 -5.383449929279485 L-16.26638170011891 -5.365712350456043 L-16.117869564153146 -5.334413125691117 L-15.95336769756118 -5.28842913621913 L-15.883088407625328 -5.27382342822149 L-15.819273096867313 -5.2643353244669004 L-15.762109104020492 -5.259693339782685 L-15.711746318423396 -5.259611934003199 L-15.668379106305865 -5.263800897258354 L-15.632129269960311 -5.271964148137785 L-15.603168937170917 -5.283813811623624 L-15.581617575377873 -5.299031567859857 L-15.567606349222302 -5.317324849184359 L-15.563460355696215 -5.327518020314172 L-15.475383943356452 -5.578248017102262 L-15.401063622023676 -5.780115856138086 L-15.324215466540178 -5.9810349831488905 L-15.225578324859598 -6.227801471921343 L-15.221994072255892 -6.238205467945605 L-15.220509668669479 -6.261200144416315 L-15.22672703313961 -6.2868396779348 L-15.240739880912583 -6.314817445845975 L-15.262667679428583 -6.34481512829382 L-15.292570208287318 -6.37650268528158 L-15.330550545083788 -6.409577007902411 L-15.376653258468526 -6.443691666314365 L-15.430953338990419 -6.478533010365878 L-15.493488327803519 -6.513773334912417 L-15.647624637085086 -6.587376253068277 L-15.780057861100888 -6.661517585513678 L-15.880342586895583 -6.7255800657363745 L-16.00386101475019 -6.811948634558173 L-16.146675783827817 -6.920982721582849 L-16.306924346257105 -7.054258371044204 L-16.48511715399676 -7.215566682887884 L-16.675827443846277 -7.403287520957377 L-16.86461088008327 -7.604908906984673 A18.5 18.5 0 0 1 -16.460670100829912 -8.443700578052374 L-16.18533160644132 -8.421812622258438 L-15.91965962449261 -8.389751341756188 L-15.6824423095192 -8.351008682105535 L-15.478329866486757 -8.308817319253329 L-15.304040032513994 -8.2651418779419 L-15.159501886204435 -8.22242120424174 L-15.046889318506153 -8.1839577515054 L-14.906352526047085 -8.12664365232103 L-14.752705030498117 -8.052025701990493 L-14.686163107530922 -8.025105861949585 L-14.62506750141444 -8.00437557219619 L-14.56965101582093 -7.98960116105855 L-14.520112116470901 -7.980528440893803 L-14.476693865022165 -7.976906571054322 L-14.43956897373142 -7.978465976918927 L-14.408958206287835 -7.984954144342371 L-14.385035948445722 -7.996079200734836 L-14.367983496949726 -8.011576700467911 L-14.36208407026018 -8.02086576741431 L-14.230653512442121 -8.25183977931096 L-14.121482654750697 -8.437193113327154 L-14.009993985316552 -8.621161619294355 L-13.868880125106662 -8.846350127341864 L-13.863495767693276 -8.855946933854705 L-13.857929361055671 -8.878307025919474 L-13.85946869443179 -8.904644674879794 L-13.868260726614531 -8.934674919136175 L-13.884479843358209 -8.96810588609878 L-13.908243794496752 -9.004623513709085 L-13.939708123310997 -9.043947969360362 L-13.978978539651768 -9.085746348520589 L-14.026184833336098 -9.129723431604722 L-14.081422456229266 -9.175563483056616 L-14.21993942309476 -9.275505672798408 L-14.337005944619737 -9.372102388778 L-14.424240256071972 -9.453041887821758 L-14.530351988518282 -9.560077545138572 L-14.65140287749631 -9.692859971225875 L-14.78527889348079 -9.85260731187392 L-14.931805358223286 -10.043140887209255 L-15.085932005321759 -10.261897611344038 L-15.235680725458629 -10.493987442914454 A18.5 18.5 0 0 1 -14.688459404540854 -11.247172975522034 L-14.421453958451774 -11.176473181605884 L-14.16577619724055 -11.097489574939598 L-13.939288831113751 -11.01701273861419 L-13.745990117751191 -10.939053724302967 L-13.582299744292975 -10.864959513752403 L-13.447712456297408 -10.797117096268963 L-13.343777533574839 -10.739164016638508 L-13.215733052766158 -10.657677165340678 L-13.07787828518871 -10.556823536471068 L-13.017212441345217 -10.518454790195523 L-12.960800202920488 -10.487148603012937 L-12.9089123560241 -10.46271662715226 L-12.86178956390699 -10.444944197293408 L-12.819715771453264 -10.433627904236015 L-12.78290904976988 -10.428533344498222 L-12.751631702924358 -10.429451480819802 L-12.726107430083522 -10.436126268902314 L-12.706561833068987 -10.448329884651157 L-12.69909858564385 -10.456416289159415 L-12.528538168617189 -10.660210621376216 L-12.3880256157594 -10.82309204170827 L-12.245479769943405 -10.984197027480288 L-12.066424706780221 -11.180569810868489 L-12.059413302234686 -11.18905097861231 L-12.049943801435278 -11.210057814514226 L-12.046755628276108 -11.23624706520811 L-12.050044261720153 -11.267364589050326 L-12.060033400934234 -11.303154341742424 L-12.076894981409952 -11.343328333377075 L-12.100832012824945 -11.387639001697893 L-12.13200794862875 -11.435777667308365 L-12.170603206355034 -11.48747702979033 L-12.216768080678815 -11.542443471176593 L-12.335213655841041 -11.665512708293312 L-12.43315086055072 -11.781460109875464 L-12.504530975113793 -11.876675165643778 L-12.589825493761957 -12.00093769736021 L-12.685221827467629 -12.15320072608195 L-12.788422411700006 -12.334285346947707 L-12.898573052306144 -12.547920279891873 L-13.011162299400002 -12.790681868984622 L-13.117063256357891 -13.045780587947338 A18.5 18.5 0 0 1 -12.444149537285199 -13.689151979353667 L-12.19405891422575 -13.57191269686375 L-11.956593067369697 -13.448545362139612 L-11.748115140391254 -13.328920940875513 L-11.571842936392757 -13.217699941970125 L-11.424013166736925 -13.115568411072442 L-11.30370248323032 -13.024784760924563 L-11.211785759417701 -12.949204714063267 L-11.10034904522795 -12.846164165100294 L-10.982717771279244 -12.722316376306125 L-10.929877856696606 -12.673731926871149 L-10.879962121722741 -12.632856048874235 L-10.833270631616186 -12.599551772097382 L-10.790078512043404 -12.57365085306329 L-10.750701464892584 -12.55500385175793 L-10.715395911136135 -12.543419069759528 L-10.68445726455138 -12.53873766532242 L-10.658151347842363 -12.540747651913977 L-10.63674081687951 -12.549265149427253 L-10.627953623631804 -12.555888987802959 L-10.423745299537357 -12.725953522819925 L-10.256407240576166 -12.861127886599087 L-10.087385759149962 -12.99419130537559 L-9.876144470090548 -13.155436781270318 L-9.867731370723956 -13.162529718535502 L-9.85466313330997 -13.181508121284198 L-9.846849924124083 -13.206707229645756 L-9.844529459444647 -13.237911890253935 L-9.847967561975699 -13.274910116576097 L-9.857384826718345 -13.317449247088684 L-9.873025204848952 -13.365321946740277 L-9.895104639887414 -13.418253682479644 L-9.923848378316045 -13.476013664310894 L-9.959456727025088 -13.538339828978835 L-10.054023972240987 -13.680580566927837 L-10.129684077793002 -13.812152009223865 L-10.182915779853099 -13.918582331481131 L-10.244651648693202 -14.056077837584265 L-10.311327310468853 -14.222927609914887 L-10.380535511258175 -14.419529302286808 L-10.450769995506624 -14.64939919031557 L-10.518203131555527 -14.908363087147945 L-10.57685258144221 -15.178271610779571 A18.5 18.5 0 0 1 -9.799874464820853 -15.691150375097108 L-9.574736783191412 -15.531139771037454 L-9.363115198396038 -15.367353835900479 L-9.179347362675244 -15.212426657024416 L-9.02576720171458 -15.071518407942627 L-8.898549406292608 -14.944632148134977 L-8.796382211634823 -14.833825126535453 L-8.719437965864827 -14.743047317336908 L-8.628190685978499 -14.621764878734508 L-8.53456367159058 -14.47890349984992 L-8.49124800460031 -14.421664891435773 L-8.449433105870172 -14.372533106976135 L-8.409438675463363 -14.331426956141565 L-8.37156545869657 -14.298230024781336 L-8.336150767543627 -14.272851645192766 L-8.303481131261352 -14.255148985359176 L-8.273875578495002 -14.245018504353864 L-8.247633511725414 -14.242299086831588 L-8.22504619889603 -14.246856706730997 L-8.215217487446864 -14.251805083358644 L-7.983924679844194 -14.382673807090768 L-7.795139497680829 -14.485796499043339 L-7.605074870128788 -14.586541583059901 L-7.368436824013425 -14.70747718919268 L-7.358892433761741 -14.71295392313944 L-7.342645483636244 -14.72929391125509 L-7.330458361395604 -14.752692957207687 L-7.322603380236768 -14.7829818111146 L-7.3193799426405635 -14.81999935763059 L-7.321050213012757 -14.863536384365126 L-7.327891243236918 -14.913432447390901 L-7.340164526300877 -14.969455983720124 L-7.358132898028334 -15.03142013155953 L-7.382040239496483 -15.099102805294581 L-7.449689685694626 -15.255943309722122 L-7.500640914043191 -15.398909978319287 L-7.534013292896915 -15.513134808936995 L-7.5702062703079935 -15.659444070728997 L-7.606018249523235 -15.835517897701344 L-7.639009658351438 -16.041317721422185 L-7.667070592129324 -16.280034357196723 L-7.687180260656493 -16.546877249048325 L-7.696693161895689 -16.82292049531787 A18.5 18.5 0 0 1 -6.840623363693594 -17.18882228706339 L-6.647674733825637 -16.99118323390564 L-6.468699102949084 -16.79224291307465 L-6.315547807930684 -16.606992463590203 L-6.189595882747304 -16.440925871397198 L-6.087078946179206 -16.29336311147216 L-6.006338978069992 -16.16609414726752 L-5.946840261711605 -16.0630362492116 L-5.878715178782755 -15.927410038337973 L-5.812101673234617 -15.770126751627055 L-5.779702455014029 -15.706073680204252 L-5.7473323577782205 -15.65026512526019 L-5.715320440971958 -15.602678285877978 L-5.6839834033602274 -15.563252318880059 L-5.65366932551812 -15.531958243009653 L-5.6246856357007955 -15.508706683393724 L-5.597364723578291 -15.493452727815104 L-5.572029948366151 -15.486091310495707 L-5.548991828489474 -15.486542567127662 L-5.538437501711916 -15.489656437110899 L-5.28749415174573 -15.577123121098282 L-5.083329557467886 -15.644879693055275 L-4.87833061730523 -15.710068412418273 L-4.6239015556424965 -15.78680717890185 L-4.613532639061561 -15.79049168279486 L-4.5946291665696215 -15.803668075614842 L-4.5784598354106425 -15.824514994568759 L-4.565322803329949 -15.852914533088091 L-4.555541429543084 -15.888761625394741 L-4.54941102168076 -15.931897232489595 L-4.5472328276582505 -15.982212958369288 L-4.5493054853315416 -16.039527652734424 L-4.555920972106078 -16.10370438788616 L-4.56735890470752 -16.174568193864985 L-4.605916243024952 -16.340967481909964 L-4.630520979768134 -16.490734310446186 L-4.642961419700238 -16.60908236938378 L-4.652448233608618 -16.75950288680699 L-4.6562455037852795 -16.939141610748152 L-4.651959749627202 -17.147524990150863 L-4.636945231434292 -17.387415824580682 L-4.609085091146975 -17.65356116134834 L-4.5691556912656095 -17.92686687319156 A18.5 18.5 0 0 1 -3.6615089991735736 -18.13403130771337 L-3.506950948789716 -17.90511608724397 L-3.3663736958699957 -17.677415486319106 L-3.2487613501891883 -17.467795868097294 L-3.154485859292074 -17.281908449706194 L-3.0799647602703653 -17.11841197818281 L-3.0232470677178194 -16.97877160059984 L-2.983106218470505 -16.866745979326378 L-2.940292928717974 -16.72113513419263 L-2.902833944887706 -16.554485153903386 L-2.8823925129685772 -16.485676337890496 L-2.8605076187864618 -16.424984745337348 L-2.8375071049263907 -16.372446697579818 L-2.813713444642763 -16.328058877963315 L-2.7894742995158444 -16.2918549231584 L-2.765108115802059 -16.26380178801763 L-2.7409499609187398 -16.243914632549 L-2.7173367577848877 -16.232147817442122 L-2.6945882949895847 -16.22847820704718 L-2.6836475776303925 -16.22965748804264 L-2.4211192110454816 -16.270910881094103 L-2.2081372227004343 -16.301123581082525 L-1.9947928045376806 -16.328660716714175 L-1.7307502867143465 -16.358736196452895 L-1.7198901093146444 -16.36051004730542 L-1.698937687615981 -16.370099344722927 L-1.6793058431462808 -16.387724099550084 L-1.661308995163992 -16.413321538146604 L-1.6452840665881163 -16.446846021202095 L-1.6315500168440873 -16.488193794753144 L-1.6204226075230135 -16.53731199465706 L-1.6122280228826296 -16.59407570562253 L-1.6072779975160696 -16.658402335014024 L-1.605878896685833 -16.730169652205532 L-1.6141048625439467 -16.900779513836397 L-1.6115722911979775 -17.05253287321396 L-1.602680946233014 -17.17120035648008 L-1.5851566826339063 -17.32089749033811 L-1.556817196384104 -17.498327374853368 L-1.5153920269047165 -17.702596696665534 L-1.457784635709718 -17.935951440949225 L-1.3828501344401476 -18.192845092524113 L-1.2947617972044296 -18.454628999485678 A18.5 18.5 0 0 1 -0.3647107227204748 -18.49639764140279 L-0.25351087473084055 -18.24356377715969 L-0.1558502683441424 -17.99442138080736 L-0.07755702956286836 -17.767169940853424 L-0.01798806479958681 -17.567436270840002 L0.026142027237011756 -17.393260998838368 L0.057014490926777794 -17.245737364509075 L0.07650731314020998 -17.12834461566079 L0.0926327553568842 -16.977429188638517 L0.09973325490762142 -16.80676878225751 L0.10755989608414462 -16.73541579361727 L0.1182561887066036 -16.671791841176898 L0.131506044180133 -16.615991201127432 L0.14699157931665363 -16.568068189937236 L0.16437672565996952 -16.528117981093956 L0.18334225407709115 -16.496164921273973 L0.20356118874588058 -16.472283755455294 L0.22469387202371383 -16.456489737680236 L0.24642152342590495 -16.448817204555848 L0.2573969877087543 -16.44802399350203 L0.5230724932012931 -16.441738177621495 L0.7380264592659684 -16.433435944604625 L0.9528592902886974 -16.422436430308096 L1.2180287204948825 -16.404881972636975 L1.229031103675942 -16.404688157423085 L1.251359046508223 -16.410382151529014 L1.2738224206542526 -16.424218268107573 L1.2961006510361308 -16.44619088404314 L1.3178540800112333 -16.47631525337804 L1.3387503479777805 -16.514546241922282 L1.3584693285061757 -16.560888216490927 L1.3766677747673668 -16.61527651168096 L1.3930242143868465 -16.67768552451544 L1.4072153803968939 -16.748049692294753 L1.4295851763091256 -16.91738658618042 L1.459173656817382 -17.066248998565857 L1.4891110115364141 -17.181421835608397 L1.5330831083919234 -17.32558419684783 L1.5926484966623131 -17.495102499459083 L1.6698816424311995 -17.6886923796043 L1.7682303576757605 -17.90801082025566 L1.8878307634004674 -18.14739601330336 L2.021246806352457 -18.38924416521701 A18.5 18.5 0 0 1 2.9438096564458434 -18.264274536010845 L3.008077247431326 -17.99564831642322 L3.0596823150403196 -17.733071766257233 L3.096140037807739 -17.495492552834396 L3.119087880896189 -17.2883322356943 L3.1314085884792595 -17.109076299768443 L3.135443556921309 -16.958410939683016 L3.133661836756172 -16.839424162798974 L3.122581146456087 -16.688054699886294 L3.0990949458294224 -16.518869033294457 L3.094055241576145 -16.4472652157912 L3.0932191449931223 -16.382753829645 L3.096292480823174 -16.325484075787703 L3.102972172971759 -16.275566158034657 L3.112944547623452 -16.233153727736376 L3.125899853055695 -16.19832774087086 L3.1415297143135046 -16.171220125021033 L3.15950265590674 -16.151906537304452 L3.179511151322181 -16.14047768297822 L3.1901686020759947 -16.137737474331043 L3.450452217131097 -16.084114480812897 L3.66046936358137 -16.037564155391 L3.869885703509961 -15.98838152460621 L4.127659282430036 -15.923761344238653 L4.138450245744223 -15.921606092338788 L4.161436071256 -15.923221773477547 L4.186008983750379 -15.932824547636276 L4.211852555876784 -15.950466122955598 L4.238635312145073 -15.976222156553058 L4.266022175088187 -16.01010758466213 L4.29369894256489 -16.05218386470256 L4.321316337410321 -16.102448659558913 L4.348553481855228 -16.160934178813573 L4.375080597292993 -16.22763363493243 L4.427327171329022 -16.390254933972557 L4.483020562890546 -16.531441838947398 L4.533041716150441 -16.63941828001928 L4.602048346889053 -16.7734123717327 L4.690925156590456 -16.92957063471389 L4.801483941796185 -17.106258935158014 L4.937412972460756 -17.304491997038696 L5.097835227193065 -17.518674694487864 L5.272290874465764 -17.73281389275777 A18.5 18.5 0 0 1 6.157713571079338 -17.445122619136367 L6.172983291806847 -17.169337911928157 L6.176874191304392 -16.901766634319554 L6.170324616850696 -16.661495638828054 L6.155913775705905 -16.453566977606233 L6.136029101156215 -16.274991811029093 L6.113096887144837 -16.12602723382855 L6.090097890553243 -16.009270761820442 L6.052167210239865 -15.862312402102583 L5.99884917524845 -15.700039241830606 L5.981105105806755 -15.630486001074704 L5.968763492850372 -15.567160630253566 L5.961561529494619 -15.510262459599124 L5.959220687853543 -15.459954038232402 L5.961459770487011 -15.416442556885974 L5.967988458758122 -15.379862978847694 L5.978526890003833 -15.350400174044358 L5.992762424781478 -15.328187770986732 L6.010408674704474 -15.313369928240393 L6.020405572693043 -15.308770794560438 L6.266931567760767 -15.209534110537495 L6.465261770707041 -15.126231858471364 L6.662530806067852 -15.040446881419344 L6.904623478778518 -14.930837924122024 L6.914856191786081 -14.926790507105595 L6.937761116632604 -14.924275945955996 L6.963653773849105 -14.929336736632242 L6.992232054047732 -14.942080256589023 L7.0231833177858185 -14.962640134337088 L7.056180539396522 -14.991090896470537 L7.090925539742311 -15.027549115721774 L7.127074237377983 -15.072074858379752 L7.164316662415059 -15.124757111343701 L7.202327123963789 -15.18564808040195 L7.282771228245473 -15.336327002240138 L7.362779499430803 -15.465300536509513 L7.431276730208244 -15.562610129951386 L7.523099964939176 -15.682129271780415 L7.638431622279706 -15.81990844007188 L7.778762596597694 -15.97401625345901 L7.947903071793937 -16.144792562853464 L8.14399107227088 -16.32688875657797 L8.35387917581836 -16.50643639117742 A18.5 18.5 0 0 1 9.173703504954739 -16.06527010738814 L9.139484574036125 -15.791190859965427 L9.095536248710927 -15.527224815934932 L9.046189885748067 -15.291984545865503 L8.994883536661705 -15.089970538817903 L8.94343258978045 -14.917815694375399 L8.894270253542658 -14.77533974413943 L8.850793187198695 -14.664566226085144 L8.787231640146768 -14.526742332161177 L8.705795456305452 -14.376597271099005 L8.675917330667062 -14.31133010547695 L8.65246687093245 -14.251226079503349 L8.635221085418943 -14.196528246072566 L8.623934946564601 -14.147446275148807 L8.61836877122168 -14.10423423756607 L8.618261004918804 -14.067076766090954 L8.62336929230113 -14.036205731122564 L8.633409878462393 -14.011808437634594 L8.648126717901032 -13.994077864126178 L8.657141754597532 -13.98776762535409 L8.881986581354136 -13.846106799503069 L9.062255344887085 -13.72873002371543 L9.241036686570114 -13.609099900142745 L9.459667395375938 -13.458025087989748 L9.469012970261307 -13.45221559316989 L9.491100811311776 -13.445651609796267 L9.51748100194291 -13.446007759013668 L9.547875460773888 -13.453443636391087 L9.582000432898445 -13.468146546902213 L9.619547455323966 -13.490248212155707 L9.660243955639446 -13.519916573453093 L9.7037621071801 -13.557272169907764 L9.749812810625485 -13.602457905623643 L9.798084930775893 -13.655583301774492 L9.904141025601987 -13.78947690188383 L10.005892644744202 -13.902091749936547 L10.090664395682293 -13.985606885348584 L10.202352960088884 -14.086809633734159 L10.340432610706413 -14.201781371501935 L10.506025421157371 -14.328355545909485 L10.702941026843229 -14.466186211718554 L10.928392343387738 -14.610343180222847 L11.166966926865472 -14.749528442443529 A18.5 18.5 0 0 1 11.89484306003251 -14.16906659584019 L11.812235302062923 -13.905501940728293 L11.721860287251738 -13.653625216123029 L11.631303168487662 -13.430976487312037 L11.544750339734373 -13.24137003084285 L11.463386796288292 -13.08116870688484 L11.389574455761675 -12.949760677883633 L11.327016708350692 -12.84853046579819 L11.239867214981075 -12.724270811020709 L11.132930308244433 -12.591079634970644 L11.091878433951171 -12.532196284887531 L11.058072844509304 -12.477245396610018 L11.031337530574323 -12.426505933774886 L11.01146884029576 -12.380227948224361 L10.998276308431837 -12.338704224848206 L10.991535551252618 -12.302163131642736 L10.991049510211978 -12.270876086973947 L10.996572435056216 -12.245078052142492 L11.007886852681887 -12.225004623093326 L11.015630277389294 -12.217186095495324 L11.21156723809988 -12.037654223317992 L11.36798057583392 -11.889975509960593 L11.522528044415699 -11.740345250470861 L11.710669818445714 -11.552660252229556 L11.718827880742511 -11.545275401549848 L11.739388716611625 -11.534872967778693 L11.765408559624815 -11.53051302860836 L11.796642294172674 -11.532402268189248 L11.832844170001497 -11.540775647822011 L11.873734201047286 -11.55581785048899 L11.919074182327126 -11.57774278828922 L11.968563078575393 -11.606727598934244 L12.021941952929707 -11.642964510677194 L12.078924226021723 -11.686616839976637 L12.207183581241274 -11.799421667881589 L12.327408167579632 -11.892058295841428 L12.425729804852793 -11.959094728055005 L12.553693936577359 -12.038728343394114 L12.710083586888723 -12.127197364387287 L12.895615944294537 -12.222169701704214 L13.113977650880573 -12.322624732921348 L13.361546092676939 -12.42420915262495 L13.621139172672134 -12.518558513617075 A18.5 18.5 0 0 1 14.233672572051367 -11.817457625555106 L14.105331068341844 -11.572878747631044 L13.97143409138151 -11.341186867624682 L13.842576797123943 -11.1382857934121 L13.723559367835758 -10.967180995040954 L13.614898319057355 -10.82408219393354 L13.518808363599435 -10.707965648342078 L13.439180592595907 -10.619532364534395 L13.331244209332343 -10.512830756449135 L13.20224361987087 -10.400874339399493 L13.151337437940118 -10.350267364176377 L13.108263258250986 -10.302235780357933 L13.072897710882295 -10.257085496202542 L13.045085065233076 -10.215098908558495 L13.024690195677108 -10.176598106024066 L13.011533101103598 -10.141847851889978 L13.005468353398955 -10.111150388879508 L13.006296105577396 -10.084780782770752 L13.013844446698076 -10.063009674706947 L13.020067379374982 -10.053934152193136 L13.180798898904845 -9.842301535780585 L13.308329557467884 -9.669067400211185 L13.433675870146113 -9.494246244460594 L13.585281677979424 -9.275983410402187 L13.591990020852954 -9.267260559039748 L13.610363009358371 -9.253354017651619 L13.635186205589973 -9.244418122125854 L13.66625533792714 -9.240700002195613 L13.703370559384089 -9.242474723638978 L13.746289359807905 -9.24997399494896 L13.79481555774791 -9.263450823711231 L13.84868458485877 -9.283133252883697 L13.907675989179982 -9.30925665649447 L13.971536958071258 -9.342032897161562 L14.11787721247536 -9.430123312877145 L14.252710648883827 -9.499804303299806 L14.361422034170788 -9.548207426225815 L14.50154886073046 -9.603712418598706 L14.67122201869682 -9.66283525569 L14.870730760433936 -9.723153266851442 L15.10352024300186 -9.783003956118645 L15.36524875663076 -9.838750820188345 L15.637516797958474 -9.885231813858715 A18.5 18.5 0 0 1 16.115020136099687 -9.086025843748159 L15.945069888179194 -8.868293709388583 L15.771954508080016 -8.66423344164124 L15.60893861779053 -8.48760142949982 L15.46128190607264 -8.34049773823186 L15.328815807476266 -8.219100773184723 L15.213536647318538 -8.122007792319327 L15.119398154800463 -8.049213755294135 L14.994144045811394 -7.9634996713793305 L14.847225958712423 -7.876376384692134 L14.78810163571718 -7.835672334152241 L14.737143305357547 -7.796103829417307 L14.694284202346442 -7.75799389122419 L14.659421522642056 -7.721648184960183 L14.632479823282525 -7.687407750739502 L14.613329271160014 -7.655565237437269 L14.601880742772684 -7.626443997804236 L14.597986717649235 -7.600350361255491 L14.601526372370511 -7.577581315503547 L14.606028802840434 -7.567540492834886 L14.726388837901547 -7.330609178610516 L14.820937876994792 -7.137387508483833 L14.913054300144703 -6.942994352261536 L15.023251406375877 -6.701168829459919 L15.028294418166542 -6.691388337034727 L15.04388903634035 -6.674424655712175 L15.066717747838888 -6.661200010865658 L15.096623690488281 -6.651994034858122 L15.133459343817224 -6.6471130571046535 L15.177027468059737 -6.646828364307313 L15.227180210730626 -6.651423927666439 L15.283697973849153 -6.661171365897987 L15.34640587586409 -6.676341633690123 L15.415092996469484 -6.697188330381448 L15.574810653872424 -6.757733035465523 L15.719919282763511 -6.802218783985113 L15.835526342693122 -6.830432881426492 L15.983312072585539 -6.860025274708639 L16.160815303302314 -6.887901671267507 L16.367888054254962 -6.91162668576491 L16.607623267295217 -6.928949382683823 L16.87509968297768 -6.937066941039747 L17.151291766766747 -6.934185630007105 A18.5 18.5 0 0 1 17.478417693491032 -6.06256171531618 L17.27232104216326 -5.878674414470002 L17.06555132968144 -5.708804423888427 L16.873616308203857 -5.564118572021699 L16.702066122263222 -5.445744021531599 L16.55005254325123 -5.349950690887104 L16.419289345453173 -5.27500192304116 L16.313665820027495 -5.220186793043582 L16.175119755435258 -5.158215154482037 L16.01500623890275 -5.098725212276692 L15.949564079231735 -5.069232348095779 L15.892359440868013 -5.039398686743612 L15.843384309049862 -5.0095539792832575 L15.802592110501113 -4.980017335303961 L15.769969509723143 -4.951137785126004 L15.74544101455397 -4.923226457233266 L15.728976670606203 -4.89661742158051 L15.720486025352349 -4.871638425540373 L15.71990322625904 -4.848603257965188 L15.722540442702066 -4.837919855443864 L15.798660522735 -4.583305010794579 L15.857189058446785 -4.376306109571808 L15.913114894434694 -4.168588908866008 L15.97836147339898 -3.910973168598731 L15.98157706755842 -3.9004493881847466 L15.993892091541221 -3.880973793603244 L16.013992584735604 -3.8638854504026146 L16.04177413609378 -3.8494875059613687 L16.077146293088248 -3.838107707652144 L16.119963425788335 -3.8300482010082355 L16.170130762774853 -3.8256147937766105 L16.227480734491444 -3.8251139503822595 L16.29188965063311 -3.8288434974667833 L16.363195262380415 -3.837090620197959 L16.531156865857138 -3.868143658012777 L16.681876776502506 -3.8860043560688795 L16.800663805046824 -3.8931226037192257 L16.95135848331474 -3.8958512740418367 L17.130986686896552 -3.891585259746103 L17.338967958469084 -3.8779547360925126 L17.577943614979766 -3.852192674931 L17.84257102063543 -3.812420022568441 L18.113810106061266 -3.7602690145401287 A18.5 18.5 0 0 1 18.280044524923596 -2.844241865061538 Z" id="SvgjsPath1088">
        </path>
      </g>
    </g>
  </g>
</svg>
